<svg version="1.1" id="Layer_1" xmlns="http://www.w3.org/2000/svg" xmlns:xlink="http://www.w3.org/1999/xlink" x="0px" y="0px"
	 width="100%" viewBox="0 0 200 200" enable-background="new 0 0 200 200" xml:space="preserve">
<path fill="#010101" opacity="1.000000" stroke="none" 
	d="
M2.000000,1.000000 
	C68.284760,1.000000 134.569519,1.000000 200.927139,1.000000 
	C200.927139,67.569214 200.927139,134.138519 200.927139,201.000000 
	C134.979385,201.000000 68.958351,201.000000 2.468450,200.531342 
	C1.999724,133.708450 1.999862,67.354225 2.000000,1.000000 
M134.061295,84.015724 
	C134.061295,95.627205 134.061295,107.238693 134.061295,119.049301 
	C135.815643,119.049301 137.224014,119.049301 139.174011,119.049301 
	C139.174011,114.109962 139.174011,109.414963 139.174011,104.760025 
	C152.735611,104.334915 152.735611,104.334915 154.075684,118.996048 
	C155.432770,118.996048 156.801224,118.996048 159.425293,118.996048 
	C158.154007,112.980309 157.002808,107.532738 155.754227,101.624428 
	C159.701920,99.331070 159.476929,94.359825 157.931152,90.689140 
	C156.558273,87.429070 152.890930,83.829178 149.580795,83.001701 
	C144.796143,81.805611 139.419754,82.976570 134.061295,84.015724 
M56.465382,104.637207 
	C58.563133,104.637207 60.660881,104.637207 63.100037,104.637207 
	C63.100037,109.735329 63.100037,114.324150 63.100037,119.028152 
	C64.884178,119.028152 66.290604,119.028152 67.954231,119.028152 
	C67.954231,111.624756 67.579063,104.468277 68.079536,97.373573 
	C68.443436,92.214958 66.498436,88.814354 63.110249,85.201218 
	C59.373844,81.216743 54.540142,81.790092 51.196518,83.099472 
	C47.960670,84.366646 44.271732,88.777969 43.879101,92.167114 
	C42.857506,100.985359 43.535625,110.000519 43.535625,119.127899 
	C45.292400,119.127899 46.567196,119.127899 48.219559,119.127899 
	C48.219559,114.402061 48.219559,109.800819 48.219559,104.638832 
	C50.871994,104.638832 53.162968,104.638832 56.465382,104.637207 
M82.055466,90.767181 
	C82.055466,98.673935 82.055466,106.580688 82.055466,114.685410 
	C79.316132,114.685410 77.351662,114.685410 75.184074,114.685410 
	C75.184074,116.299171 75.184074,117.685432 75.184074,119.068573 
	C81.564049,119.068573 87.653564,119.068573 94.107529,119.068573 
	C93.990219,117.452179 93.892731,116.108986 93.798904,114.816132 
	C91.356140,114.705765 89.395416,114.617188 87.251701,114.520332 
	C87.251701,105.379570 87.251701,96.507469 87.251701,87.225906 
	C89.627670,87.225906 91.704323,87.225906 94.147285,87.225906 
	C94.008385,85.431290 93.903717,84.079010 93.805801,82.813965 
	C87.315735,82.813965 81.353302,82.813965 75.171112,82.813965 
	C75.171112,84.381752 75.171112,85.774162 75.171112,86.555023 
	C77.360207,88.766830 81.558205,84.696358 82.055466,90.767181 
M117.919334,88.227554 
	C117.308701,89.381165 116.451973,90.469948 116.128151,91.699120 
	C114.285454,98.693779 109.669273,102.680069 102.743721,103.988556 
	C99.400070,104.620277 96.615540,106.107063 97.211212,109.600243 
	C97.556900,111.627457 99.834862,114.332581 101.760986,114.867081 
	C105.440506,115.888123 107.117241,113.134048 108.123032,109.643806 
	C110.013306,103.084244 114.259613,98.849945 121.330666,97.880501 
	C125.627907,97.291344 128.138260,94.254723 126.893135,90.846245 
	C125.423042,86.821945 122.448364,85.805420 117.919334,88.227554 
z"/>
<path fill="#0C0C0C" opacity="1.000000" stroke="none" 
	d="
M1.500000,1.000000 
	C1.999862,67.354225 1.999724,133.708450 1.999792,200.531342 
	C1.666666,199.670807 1.042673,198.341812 1.041704,197.012375 
	C0.994086,131.674942 1.000000,66.337471 1.500000,1.000000 
z"/>
<path fill="#F4F4F4" opacity="1.000000" stroke="none" 
	d="
M134.178558,83.576683 
	C139.419754,82.976570 144.796143,81.805611 149.580795,83.001701 
	C152.890930,83.829178 156.558273,87.429070 157.931152,90.689140 
	C159.476929,94.359825 159.701920,99.331070 155.754227,101.624428 
	C157.002808,107.532738 158.154007,112.980309 159.425293,118.996048 
	C156.801224,118.996048 155.432770,118.996048 154.075684,118.996048 
	C152.735611,104.334915 152.735611,104.334915 139.174011,104.760025 
	C139.174011,109.414963 139.174011,114.109962 139.174011,119.049301 
	C137.224014,119.049301 135.815643,119.049301 134.061295,119.049301 
	C134.061295,107.238693 134.061295,95.627205 134.178558,83.576683 
M141.637222,87.262070 
	C140.730103,88.071526 139.126984,88.813332 139.040558,89.702560 
	C138.725143,92.947617 138.915848,96.241875 138.915848,99.886215 
	C142.579163,99.886215 145.763596,100.251160 148.801788,99.742592 
	C150.490845,99.459854 152.661179,98.027206 153.285477,96.550797 
	C153.898865,95.100235 153.250916,92.717461 152.417435,91.132385 
	C150.330185,87.163048 146.493835,86.880898 141.637222,87.262070 
z"/>
<path fill="#F4F4F4" opacity="1.000000" stroke="none" 
	d="
M55.959663,104.638016 
	C53.162968,104.638832 50.871994,104.638832 48.219559,104.638832 
	C48.219559,109.800819 48.219559,114.402061 48.219559,119.127899 
	C46.567196,119.127899 45.292400,119.127899 43.535625,119.127899 
	C43.535625,110.000519 42.857506,100.985359 43.879101,92.167114 
	C44.271732,88.777969 47.960670,84.366646 51.196518,83.099472 
	C54.540142,81.790092 59.373844,81.216743 63.110249,85.201218 
	C66.498436,88.814354 68.443436,92.214958 68.079536,97.373573 
	C67.579063,104.468277 67.954231,111.624756 67.954231,119.028152 
	C66.290604,119.028152 64.884178,119.028152 63.100037,119.028152 
	C63.100037,114.324150 63.100037,109.735329 63.100037,104.637207 
	C60.660881,104.637207 58.563133,104.637207 55.959663,104.638016 
M63.074329,95.735161 
	C63.686821,91.545158 60.899029,89.106743 57.862068,87.673309 
	C56.237118,86.906342 53.211113,87.585449 51.558071,88.705292 
	C47.665482,91.342300 47.511021,95.397758 48.764915,99.881004 
	C52.702301,99.881004 56.491001,99.729706 60.260715,99.932098 
	C62.951675,100.076569 63.283791,98.691658 63.074329,95.735161 
z"/>
<path fill="#F8F8F8" opacity="1.000000" stroke="none" 
	d="
M82.054565,90.296494 
	C81.558205,84.696358 77.360207,88.766830 75.171112,86.555023 
	C75.171112,85.774162 75.171112,84.381752 75.171112,82.813965 
	C81.353302,82.813965 87.315735,82.813965 93.805801,82.813965 
	C93.903717,84.079010 94.008385,85.431290 94.147285,87.225906 
	C91.704323,87.225906 89.627670,87.225906 87.251701,87.225906 
	C87.251701,96.507469 87.251701,105.379570 87.251701,114.520332 
	C89.395416,114.617188 91.356140,114.705765 93.798904,114.816132 
	C93.892731,116.108986 93.990219,117.452179 94.107529,119.068573 
	C87.653564,119.068573 81.564049,119.068573 75.184074,119.068573 
	C75.184074,117.685432 75.184074,116.299171 75.184074,114.685410 
	C77.351662,114.685410 79.316132,114.685410 82.055466,114.685410 
	C82.055466,106.580688 82.055466,98.673935 82.054565,90.296494 
z"/>
<path fill="#F5F5F5" opacity="1.000000" stroke="none" 
	d="
M118.242813,87.998184 
	C122.448364,85.805420 125.423042,86.821945 126.893135,90.846245 
	C128.138260,94.254723 125.627907,97.291344 121.330666,97.880501 
	C114.259613,98.849945 110.013306,103.084244 108.123032,109.643806 
	C107.117241,113.134048 105.440506,115.888123 101.760986,114.867081 
	C99.834862,114.332581 97.556900,111.627457 97.211212,109.600243 
	C96.615540,106.107063 99.400070,104.620277 102.743721,103.988556 
	C109.669273,102.680069 114.285454,98.693779 116.128151,91.699120 
	C116.451973,90.469948 117.308701,89.381165 118.242813,87.998184 
z"/>
<path fill="#0E0E0E" opacity="1.000000" stroke="none" 
	d="
M142.086548,87.263397 
	C146.493835,86.880898 150.330185,87.163048 152.417435,91.132385 
	C153.250916,92.717461 153.898865,95.100235 153.285477,96.550797 
	C152.661179,98.027206 150.490845,99.459854 148.801788,99.742592 
	C145.763596,100.251160 142.579163,99.886215 138.915848,99.886215 
	C138.915848,96.241875 138.725143,92.947617 139.040558,89.702560 
	C139.126984,88.813332 140.730103,88.071526 142.086548,87.263397 
z"/>
<path fill="#0C0C0C" opacity="1.000000" stroke="none" 
	d="
M63.071617,96.175148 
	C63.283791,98.691658 62.951675,100.076569 60.260715,99.932098 
	C56.491001,99.729706 52.702301,99.881004 48.764915,99.881004 
	C47.511021,95.397758 47.665482,91.342300 51.558071,88.705292 
	C53.211113,87.585449 56.237118,86.906342 57.862068,87.673309 
	C60.899029,89.106743 63.686821,91.545158 63.071617,96.175148 
z"/>
</svg>